<?xml version="1.0" encoding="utf-8"?>
<!-- Generator: Adobe Illustrator 24.0.1, SVG Export Plug-In . SVG Version: 6.00 Build 0)  -->
<svg version="1.1" id="Layer_1" xmlns="http://www.w3.org/2000/svg" xmlns:xlink="http://www.w3.org/1999/xlink" x="0px" y="0px"
	 viewBox="0 0 363.8 136" style="enable-background:new 0 0 363.8 136;" xml:space="preserve">
<style type="text/css">
	.st0{fill:#FFFFFF;}
	.st1{fill:#84A9C5;}
	.st2{fill:#40403F;}
	.st3{fill:#474748;}
</style>
<g>
	<path class="st1" d="M173.1,59.6c0.2,0,0.4,0.1,0.5,0.2l1.2,1.3c-0.9,1-1.8,1.8-2.9,2.6s-2.3,1.4-3.4,1.9c-1.3,0.5-2.6,1-4.1,1.3
		c-1.5,0.3-3.1,0.4-5,0.4c-3,0-5.7-0.5-8.3-1.6c-2.5-1.1-4.6-2.6-6.5-4.4c-1.8-1.9-3.2-4.3-4.2-7c-1-2.7-1.5-5.8-1.5-9.2
		s0.5-6.2,1.5-9c1.1-2.7,2.5-5.1,4.3-7c1.8-1.9,4.1-3.4,6.7-4.5c2.6-1.1,5.5-1.6,8.6-1.6c1.6,0,3,0.1,4.3,0.3c1.3,0.2,2.5,0.5,3.7,1
		c1.2,0.4,2.2,1,3.2,1.6c1,0.6,1.9,1.4,2.9,2.3l-1,1.4c-0.2,0.2-0.4,0.3-0.8,0.3c-0.2,0-0.4-0.1-0.8-0.3c-0.3-0.2-0.6-0.4-1.1-0.8
		s-1-0.6-1.6-1.1c-0.6-0.4-1.4-0.8-2.3-1.1s-1.8-0.5-3-0.8c-1.1-0.2-2.4-0.3-3.9-0.3c-2.6,0-5.1,0.4-7.2,1.4c-2.2,1-4.1,2.2-5.7,3.9
		c-1.6,1.7-2.8,3.8-3.8,6.1c-0.9,2.4-1.3,5.1-1.3,8.1s0.4,5.8,1.3,8.2c0.9,2.4,2,4.4,3.7,6.1c1.5,1.6,3.3,2.9,5.5,3.9
		c2.2,0.9,4.4,1.3,6.9,1.3c1.5,0,2.9-0.1,4.2-0.3c1.2-0.2,2.4-0.5,3.3-1c1-0.4,1.9-0.9,2.8-1.5c0.9-0.5,1.7-1.3,2.6-2
		c0.1-0.1,0.2-0.1,0.3-0.2C172.6,59.3,173,59.6,173.1,59.6z"/>
	<path class="st1" d="M219,56c0.1-0.3,0.2-0.6,0.4-1c0.1-0.3,0.3-0.6,0.4-0.9l17-30c0.2-0.2,0.3-0.4,0.5-0.5s0.4-0.1,0.6-0.1h2.2
		v43.3h-2.8V30c0-0.5,0-1.1,0.1-1.7l-17,30.3c-0.3,0.5-0.6,0.8-1.2,0.8h-0.5c-0.5,0-1-0.2-1.2-0.8L200,28.2c0.1,0.6,0.1,1.2,0.1,1.7
		v36.9h-2.7V23.5h2.2c0.3,0,0.5,0,0.6,0.1c0.1,0.1,0.3,0.2,0.5,0.5l17.4,30.1C218.6,54.8,218.8,55.4,219,56z"/>
	<path class="st1" d="M298.3,66.8H296c-0.3,0-0.5-0.1-0.8-0.2s-0.3-0.3-0.4-0.6l-5.1-12.6h-21.3L263.3,66c-0.1,0.2-0.2,0.4-0.4,0.5
		c-0.2,0.2-0.4,0.2-0.8,0.2h-2.4l17.8-43.3h3.1L298.3,66.8z M269.4,51.1h19.4l-8.8-21.9c-0.1-0.3-0.3-0.8-0.4-1.2
		c-0.1-0.4-0.3-0.9-0.4-1.4c-0.1,0.5-0.3,1-0.4,1.4s-0.3,0.9-0.4,1.2L269.4,51.1z"/>
	<path class="st1" d="M342.7,23.5v2.7h-15.2v40.6h-3.1V26.2h-15.3v-2.7H342.7z"/>
</g>
<g>
	<path class="st1" d="M61.6,64.4C61.5,64.4,61.5,64.4,61.6,64.4l-0.1,1.7l5.6,1.4L61.6,64.4C61.6,64.4,61.6,64.4,61.6,64.4z"/>
	<polygon class="st1" points="61.6,63.3 63,62.5 62,61.5 	"/>
	<path class="st1" d="M61.9,63.8c0,0,0,0.1,0,0.1l3.8,2.2l1.7,1l-3.9-4.1L61.9,63.8z"/>
	<path class="st1" d="M66.2,58.4l2.1,0.6c0,0,0,0,0,0c0.2-0.1,0.5-0.1,0.6,0l2.4-0.7l1.9-6.5l-4.5-19.2l-4.5,19.1L66.2,58.4z"/>
	<path class="st1" d="M66.8,60.3l1.3-0.7c0,0,0,0,0,0L66.4,59L66.8,60.3z"/>
	<polygon class="st1" points="61.5,69.7 67.7,68.2 61.5,66.7 	"/>
	<path class="st1" d="M68.5,66.3l0-6c-0.1,0-0.2-0.1-0.3-0.2l-1.3,0.8L68.5,66.3z"/>
	<polygon class="st1" points="68.3,67.3 66.5,61.1 63.8,62.6 	"/>
	<path class="st1" d="M75.8,43.5c0,0-0.1-0.1-0.1-0.1c-0.1-0.2-0.1-0.5,0-0.7L69.4,33l4.2,17.9L75.8,43.5z"/>
	<path class="st1" d="M68.5,76.4C68.5,76.4,68.5,76.4,68.5,76.4l0-6.2L67,75.6L68.5,76.4C68.5,76.4,68.5,76.4,68.5,76.4z"/>
	<path class="st1" d="M61.5,72c0.1,0,0.1,0,0.1,0.1l5.5-3.1l-5.6,1.4V72z"/>
	<polygon class="st1" points="68.2,76.9 66.8,76.1 66.4,77.4 68.2,76.9 	"/>
	<path class="st1" d="M68.2,33L62,42.6c0,0,0,0,0,0c0.2,0.3,0.1,0.6-0.1,0.8l2.1,7.3L68.2,33z"/>
	<path class="st1" d="M67.3,69.4l-5.4,3.2c0,0,0,0,0,0.1l1.5,0.9L67.3,69.4z"/>
	<polygon class="st1" points="68.3,69.2 63.9,73.8 66.5,75.3 	"/>
	<polygon class="st1" points="62.1,74.9 63,73.9 61.7,73.1 	"/>
	<polygon class="st1" points="70.8,60.3 71.2,59 69.5,59.5 	"/>
	<polygon class="st1" points="64.1,52.9 63,57.5 65.6,58.3 	"/>
	<path class="st1" d="M69.1,60.2l0,6.2l1.6-5.5L69.2,60C69.2,60.1,69.2,60.1,69.1,60.2z"/>
	<path class="st1" d="M70.8,76.1l-1.4,0.8c0,0,0,0,0,0l1.8,0.5L70.8,76.1z"/>
	<path class="st1" d="M75.8,63.9C75.8,63.8,75.8,63.8,75.8,63.9l-1.5-1l-4,4.2l0.9-0.5L75.8,63.9z"/>
	<path class="st1" d="M69.2,76.4l1.5-0.9L69.1,70L69.2,76.4C69.1,76.4,69.2,76.4,69.2,76.4z"/>
	<path class="st1" d="M87.6,49.5C87.6,49.5,87.6,49.5,87.6,49.5c-0.2,0.3-0.5,0.4-0.8,0.3l-5.3,5.5L99,50.1L87.6,49.5z"/>
	<polygon class="st1" points="79.7,56.4 75.2,57.8 75.9,60.5 	"/>
	<polygon class="st1" points="69.4,67.2 73.8,62.6 71.2,61.1 	"/>
	<path class="st1" d="M75.7,72.6c0,0,0-0.1,0-0.1l-5.5-3.2l4,4.1L75.7,72.6z"/>
	<polygon class="st1" points="76.1,66.7 69.9,68.2 76.1,69.7 	"/>
	<polygon class="st1" points="74.6,62.5 76,63.3 75.6,61.5 	"/>
	<path class="st1" d="M76.1,64.4C76.1,64.4,76.1,64.4,76.1,64.4l-5.5,3.1l5.5-1.3V64.4z"/>
	<polygon class="st1" points="69.4,69.2 71.2,75.3 73.8,73.8 	"/>
	<polygon class="st1" points="71.3,60.6 74.2,62.2 75.4,60.9 74.7,57.9 71.8,58.8 	"/>
	<path class="st1" d="M76.1,72C76.1,72,76.1,72,76.1,72l0.1-1.8l-5.5-1.3L76.1,72C76.1,72,76.1,72,76.1,72z"/>
	<polygon class="st1" points="72,58.2 74.6,57.4 73.6,52.9 	"/>
	<path class="st1" d="M76,73.2C76,73.1,76,73.1,76,73.2l-1.4,0.7l1,1L76,73.2z"/>
	<polygon class="st1" points="61,64.5 59.6,65.7 61,66 	"/>
	<path class="st1" d="M71.4,78l-2.1-0.6c0,0-0.1,0.1-0.1,0.1c-0.3,0.2-0.6,0.1-0.8-0.1L66.2,78l-1.9,6.5l4.5,19.2l4.5-19.1L71.4,78z
		"/>
	<path class="st1" d="M94.4,75.1C94.4,75.1,94.4,75.1,94.4,75.1c-0.4,0-0.6-0.2-0.7-0.5l-7.4-1.8l13.3,12.5L94.4,75.1z"/>
	<path class="st1" d="M77,72.4c0.1,0.3,0,0.6-0.3,0.8c0,0-0.1,0-0.1,0.1L76,75.4l4.7,4.9L99.6,86L85.3,72.5l-6.7-1.6L77,72.4z"/>
	<polygon class="st1" points="76.6,69.9 78.4,70.3 80.7,68.2 78.5,66.1 76.6,66.6 	"/>
	<polygon class="st1" points="75.3,78.6 79.7,80 75.9,76 	"/>
	<path class="st1" d="M69.4,103.5l6.2-9.6c0,0,0,0,0,0c-0.2-0.3-0.1-0.6,0.1-0.8l-2.1-7.3L69.4,103.5z"/>
	<polygon class="st1" points="74.1,74.2 71.3,75.8 71.8,77.6 74.8,78.5 75.5,75.6 	"/>
	<polygon class="st1" points="73.6,83.6 74.7,79 72,78.2 	"/>
	<path class="st1" d="M86.8,86.6c0.1,0,0.1,0,0.2,0c0.2,0,0.5,0.1,0.6,0.3L99,86.4l-17.6-5.3L86.8,86.6z"/>
	<path class="st1" d="M80.8,56.1l-4.8,5l0.5,2.2c0.2,0,0.4,0.1,0.5,0.3c0.1,0.2,0.1,0.4,0.1,0.5l1.6,1.5l6.6-1.6l14.4-13.5
		L80.8,56.1z"/>
	<polygon class="st1" points="63.4,62.2 66.3,60.6 65.8,58.9 62.9,58 62.2,60.9 	"/>
	<path class="st1" d="M20.9,20.3v95.9h95.9V20.3H20.9z M94.9,62.3c-0.2,0.3-0.6,0.4-0.9,0.2c-0.1,0-0.1-0.1-0.2-0.2l-8.3,2l-4,3.8
		l4.1,3.8l8.3,2c0.1-0.2,0.3-0.3,0.5-0.3c0.4,0,0.7,0.3,0.7,0.7c0,0.2-0.1,0.3-0.1,0.4l5.7,11.1c0,0,0,0,0,0c0.4,0,0.7,0.3,0.7,0.7
		s-0.3,0.7-0.7,0.7c-0.3,0-0.5-0.1-0.6-0.4l-12.4,0.6c-0.1,0.3-0.3,0.4-0.6,0.4c-0.4,0-0.7-0.3-0.7-0.7c0-0.1,0-0.2,0-0.2l-6-6.3
		l-5.3-1.6l-1.3,5.4l2.4,8.2c0.2,0,0.4,0.1,0.5,0.3c0.2,0.3,0.1,0.7-0.2,0.9c-0.1,0.1-0.3,0.1-0.4,0.1l-6.7,10.5c0,0,0,0,0,0
		c0.2,0.3,0.1,0.7-0.2,0.9c-0.3,0.2-0.7,0.1-0.9-0.2c-0.1-0.2-0.1-0.5,0-0.7L61.5,94c-0.2,0-0.5-0.1-0.6-0.3
		c-0.2-0.3-0.1-0.7,0.2-0.9c0.1,0,0.2-0.1,0.3-0.1l2.4-8.2l-1.3-5.4l-5.4,1.6L51.2,87c0.1,0.2,0.1,0.4,0,0.6
		c-0.2,0.3-0.6,0.4-0.9,0.2c-0.1-0.1-0.2-0.2-0.3-0.3l-12.4-0.6c0,0,0,0,0,0c-0.2,0.3-0.6,0.4-0.9,0.2c-0.3-0.2-0.4-0.6-0.2-0.9
		c0.1-0.2,0.4-0.3,0.6-0.3l5.7-11c-0.1-0.1-0.1-0.2-0.1-0.4c0-0.4,0.3-0.7,0.7-0.7c0.2,0,0.4,0.1,0.5,0.2l8.4-2l4-3.8l-4.1-3.8
		l-8.3-2c-0.1,0.2-0.3,0.3-0.5,0.3c-0.4,0-0.7-0.3-0.7-0.7c0-0.2,0.1-0.3,0.1-0.4l-5.7-11c0,0,0,0,0,0c-0.4,0-0.7-0.3-0.7-0.7
		c0-0.4,0.3-0.7,0.7-0.7c0.3,0,0.5,0.1,0.6,0.4L50.1,49c0.1-0.2,0.3-0.4,0.6-0.4c0.4,0,0.7,0.3,0.7,0.7c0,0.1,0,0.2-0.1,0.3l5.9,6.2
		l5.3,1.6l1.3-5.5l-2.4-8.2c-0.2,0-0.4-0.1-0.5-0.3c-0.2-0.3-0.1-0.7,0.2-0.9c0.1-0.1,0.3-0.1,0.4-0.1l6.7-10.5c0,0,0,0,0,0
		c-0.2-0.3-0.1-0.7,0.2-0.9c0.3-0.2,0.7-0.1,0.9,0.2c0.1,0.2,0.1,0.5,0,0.7l6.8,10.5c0.2,0,0.5,0.1,0.6,0.3c0.2,0.3,0.1,0.7-0.2,0.9
		c-0.1,0-0.2,0.1-0.3,0.1l-2.4,8.2l1.3,5.4l5.4-1.6l5.9-6.2c-0.1-0.2-0.1-0.4,0-0.6c0.2-0.3,0.6-0.4,0.9-0.2
		c0.1,0.1,0.2,0.2,0.3,0.3l12.4,0.6c0,0,0,0,0,0c0.2-0.3,0.6-0.4,0.9-0.2c0.3,0.2,0.4,0.6,0.2,0.9c-0.1,0.2-0.4,0.3-0.6,0.3
		l-5.7,11.1C95,61.8,95,62.1,94.9,62.3z"/>
	<polygon class="st1" points="81.1,67.8 84.4,64.7 79.1,66 	"/>
	<polygon class="st1" points="76.6,72 78,70.7 76.6,70.4 	"/>
	<polygon class="st1" points="79,70.5 84.5,71.8 81.1,68.6 	"/>
	<path class="st1" d="M76.6,64.5V66l1.4-0.3L76.6,64.5C76.7,64.5,76.7,64.5,76.6,64.5z"/>
	<path class="st1" d="M93.7,61.9c0-0.1,0-0.1,0.1-0.2c0.1-0.2,0.4-0.4,0.6-0.3l5.3-10.2L86.3,63.7L93.7,61.9z"/>
	<polygon class="st1" points="58.6,66 53.1,64.7 56.6,67.9 	"/>
	<path class="st1" d="M61,72v-1.6l-1.4,0.3L61,72C60.9,72,60.9,72,61,72z"/>
	<path class="st1" d="M60.6,64.1c-0.1-0.3,0-0.6,0.3-0.8c0.1,0,0.1-0.1,0.2-0.1l0.5-2.2l-4.7-4.9L38,50.5l14.3,13.5l6.7,1.6
		L60.6,64.1z"/>
	<polygon class="st1" points="61,66.6 59.2,66.1 56.9,68.2 59.1,70.3 61,69.9 	"/>
	<path class="st1" d="M43.2,61.3C43.2,61.3,43.3,61.3,43.2,61.3c0.4,0,0.6,0.2,0.7,0.5l7.4,1.8L38,51.1L43.2,61.3z"/>
	<polygon class="st1" points="62.4,57.8 57.9,56.5 61.7,60.5 	"/>
	<path class="st1" d="M50.9,49.9c-0.1,0-0.1,0-0.2,0c-0.3,0-0.5-0.2-0.6-0.4l-11.5,0.6l17.6,5.3L50.9,49.9z"/>
	<path class="st1" d="M43.9,74.6c0,0.3-0.3,0.6-0.6,0.6c0,0,0,0,0,0L38,85.3l13.4-12.6L43.9,74.6z"/>
	<polygon class="st1" points="66.3,75.8 63.5,74.2 62.2,75.5 62.9,78.5 65.8,77.6 	"/>
	<polygon class="st1" points="65.6,78.2 63,79 64.1,83.5 	"/>
	<polygon class="st1" points="57.9,80 62.4,78.6 61.8,76 	"/>
	<path class="st1" d="M50.1,86.9C50.1,86.9,50.1,86.9,50.1,86.9c0.2-0.3,0.5-0.4,0.8-0.3l5.3-5.5l-17.5,5.3L50.1,86.9z"/>
	<path class="st1" d="M61.9,92.9c0,0,0.1,0.1,0.1,0.1c0.1,0.2,0.1,0.5,0,0.7l6.2,9.7L64,85.6L61.9,92.9z"/>
	<polygon class="st1" points="56.6,68.6 53.2,71.8 58.5,70.5 	"/>
	<path class="st1" d="M61.1,73.2c-0.2,0-0.4-0.1-0.5-0.3c-0.1-0.2-0.1-0.3-0.1-0.5L59,70.9l-6.6,1.6L38,86l18.8-5.7l4.8-5L61.1,73.2
		z"/>
</g>
<g>
	<path class="st1" d="M144.2,112.1c0.5,0,0.9-0.1,1.3-0.2c0.4-0.2,0.7-0.4,1-0.7c0.3-0.3,0.5-0.6,0.6-1c0.1-0.4,0.2-0.8,0.2-1.3
		v-6.1h0.7v6.1c0,0.5-0.1,1.1-0.3,1.5c-0.2,0.5-0.4,0.9-0.7,1.2c-0.3,0.4-0.7,0.6-1.2,0.8c-0.5,0.2-1,0.3-1.6,0.3
		c-0.6,0-1.1-0.1-1.6-0.3c-0.5-0.2-0.9-0.5-1.2-0.8s-0.6-0.8-0.7-1.2c-0.2-0.5-0.3-1-0.3-1.5v-6.1h0.7v6.1c0,0.5,0.1,0.9,0.2,1.3
		c0.1,0.4,0.3,0.7,0.6,1s0.6,0.5,1,0.7S143.8,112.1,144.2,112.1z"/>
	<path class="st1" d="M152.1,102.8c0,0,0.1,0.1,0.1,0.1l6.4,8.6c0-0.1,0-0.3,0-0.4v-8.3h0.6v9.9h-0.3c-0.1,0-0.2,0-0.3-0.1l-6.4-8.6
		c0,0.1,0,0.3,0,0.4v8.3h-0.6v-9.9h0.4C152,102.7,152.1,102.8,152.1,102.8z"/>
	<path class="st1" d="M164,112.6h-0.7v-9.9h0.7V112.6z"/>
	<path class="st1" d="M166.6,102.7h0.6c0.1,0,0.1,0,0.2,0.1s0.1,0.1,0.1,0.1l3.4,8.2c0.1,0.2,0.2,0.4,0.2,0.7
		c0.1-0.3,0.1-0.5,0.2-0.7l3.4-8.2c0-0.1,0.1-0.1,0.1-0.1c0,0,0.1-0.1,0.2-0.1h0.6l-4.1,9.9h-0.6L166.6,102.7z"/>
	<path class="st1" d="M183.7,102.7v0.6h-5.2v4h4.3v0.6h-4.3v4.1h5.2v0.6h-5.9v-9.9H183.7z"/>
	<path class="st1" d="M187.7,108.2v4.5H187v-9.9h2.5c1.1,0,2,0.2,2.6,0.7c0.6,0.4,0.8,1.1,0.8,1.9c0,0.4-0.1,0.7-0.2,1
		s-0.3,0.6-0.6,0.8c-0.2,0.2-0.5,0.4-0.9,0.6c-0.3,0.2-0.7,0.3-1.2,0.3c0.1,0.1,0.2,0.2,0.3,0.3l3.4,4.3h-0.6c-0.1,0-0.1,0-0.2,0
		s-0.1-0.1-0.2-0.1l-3.2-4c-0.1-0.1-0.2-0.2-0.3-0.2s-0.2-0.1-0.4-0.1H187.7z M187.7,107.6h1.7c0.4,0,0.8-0.1,1.2-0.2
		c0.3-0.1,0.6-0.3,0.9-0.5s0.4-0.4,0.5-0.7s0.2-0.6,0.2-0.9c0-0.7-0.2-1.2-0.7-1.6c-0.5-0.3-1.1-0.5-2-0.5h-1.8V107.6z"/>
	<path class="st1" d="M201.2,103.9c0,0.1-0.1,0.1-0.2,0.1c-0.1,0-0.1,0-0.2-0.1c-0.1-0.1-0.2-0.2-0.4-0.3c-0.2-0.1-0.4-0.2-0.6-0.3
		c-0.2-0.1-0.5-0.1-0.9-0.1c-0.4,0-0.7,0.1-1,0.2c-0.3,0.1-0.5,0.2-0.7,0.4c-0.2,0.2-0.3,0.4-0.4,0.6c-0.1,0.2-0.1,0.5-0.1,0.7
		c0,0.3,0.1,0.6,0.2,0.8s0.3,0.4,0.6,0.6c0.2,0.2,0.5,0.3,0.8,0.4c0.3,0.1,0.6,0.2,0.9,0.3c0.3,0.1,0.6,0.2,0.9,0.3
		c0.3,0.1,0.6,0.3,0.8,0.5c0.2,0.2,0.4,0.4,0.6,0.7c0.1,0.3,0.2,0.6,0.2,1c0,0.4-0.1,0.8-0.2,1.2c-0.1,0.4-0.3,0.7-0.6,1
		c-0.3,0.3-0.6,0.5-1,0.6c-0.4,0.2-0.8,0.2-1.3,0.2c-0.7,0-1.2-0.1-1.7-0.3c-0.5-0.2-0.9-0.5-1.2-0.9l0.2-0.3
		c0.1-0.1,0.1-0.1,0.2-0.1c0,0,0.1,0,0.2,0.1c0.1,0.1,0.1,0.1,0.2,0.2s0.2,0.2,0.3,0.3s0.3,0.2,0.5,0.3s0.4,0.2,0.6,0.2
		c0.2,0.1,0.5,0.1,0.8,0.1c0.4,0,0.7-0.1,1.1-0.2c0.3-0.1,0.6-0.3,0.8-0.5c0.2-0.2,0.4-0.4,0.5-0.7c0.1-0.3,0.2-0.6,0.2-0.9
		c0-0.3-0.1-0.6-0.2-0.9c-0.1-0.2-0.3-0.4-0.6-0.6c-0.2-0.2-0.5-0.3-0.8-0.4c-0.3-0.1-0.6-0.2-0.9-0.3c-0.3-0.1-0.6-0.2-0.9-0.3
		c-0.3-0.1-0.6-0.3-0.8-0.5c-0.2-0.2-0.4-0.4-0.6-0.7s-0.2-0.6-0.2-1.1c0-0.3,0.1-0.7,0.2-1c0.1-0.3,0.3-0.6,0.6-0.8
		s0.5-0.4,0.9-0.6s0.8-0.2,1.2-0.2c0.5,0,1,0.1,1.4,0.2c0.4,0.2,0.8,0.4,1.1,0.8L201.2,103.9z"/>
	<path class="st1" d="M205.4,112.6h-0.7v-9.9h0.7V112.6z"/>
	<path class="st1" d="M215.9,102.7v0.6h-3.5v9.3h-0.7v-9.3h-3.5v-0.6H215.9z"/>
	<path class="st1" d="M221.4,108.6v4.1h-0.7v-4.1l-3.7-5.8h0.6c0.1,0,0.1,0,0.2,0c0,0,0.1,0.1,0.1,0.1l2.8,4.5
		c0.1,0.1,0.1,0.2,0.2,0.3c0,0.1,0.1,0.2,0.1,0.3c0-0.1,0.1-0.2,0.1-0.3c0-0.1,0.1-0.2,0.2-0.3l2.8-4.5c0-0.1,0.1-0.1,0.1-0.1
		c0,0,0.1,0,0.2,0h0.6L221.4,108.6z"/>
	<path class="st1" d="M239.8,107.7c0,0.8-0.1,1.5-0.3,2.1s-0.6,1.2-1,1.6s-0.9,0.8-1.5,1c-0.6,0.2-1.2,0.4-1.9,0.4
		c-0.7,0-1.3-0.1-1.9-0.4s-1.1-0.6-1.5-1c-0.4-0.4-0.7-1-1-1.6c-0.2-0.6-0.3-1.3-0.3-2.1c0-0.8,0.1-1.5,0.3-2.1
		c0.2-0.6,0.6-1.2,1-1.6c0.4-0.4,0.9-0.8,1.5-1c0.6-0.2,1.2-0.4,1.9-0.4c0.7,0,1.3,0.1,1.9,0.4c0.6,0.2,1.1,0.6,1.5,1s0.7,1,1,1.6
		C239.7,106.2,239.8,106.9,239.8,107.7z M239.1,107.7c0-0.7-0.1-1.3-0.3-1.9c-0.2-0.6-0.5-1-0.8-1.4s-0.8-0.7-1.3-0.9
		s-1-0.3-1.6-0.3c-0.6,0-1.1,0.1-1.6,0.3c-0.5,0.2-0.9,0.5-1.3,0.9c-0.4,0.4-0.6,0.8-0.8,1.4c-0.2,0.6-0.3,1.2-0.3,1.9
		c0,0.7,0.1,1.3,0.3,1.9c0.2,0.5,0.5,1,0.8,1.4c0.4,0.4,0.8,0.7,1.3,0.9c0.5,0.2,1,0.3,1.6,0.3c0.6,0,1.1-0.1,1.6-0.3
		c0.5-0.2,0.9-0.5,1.3-0.9s0.6-0.8,0.8-1.4C239,109,239.1,108.4,239.1,107.7z"/>
	<path class="st1" d="M248.9,102.7v0.6h-5.2v4.2h4.5v0.6h-4.5v4.5h-0.7v-9.9H248.9z"/>
	<path class="st1" d="M260.1,110.2c0-0.1,0.1-0.1,0.1-0.2c0-0.1,0.1-0.1,0.1-0.2l3.9-6.9c0-0.1,0.1-0.1,0.1-0.1c0,0,0.1,0,0.2,0h0.5
		v9.9h-0.6v-8.4c0-0.1,0-0.2,0-0.4l-3.9,6.9c-0.1,0.1-0.2,0.2-0.3,0.2h-0.1c-0.1,0-0.2-0.1-0.3-0.2l-4-6.9c0,0.1,0,0.3,0,0.4v8.4
		h-0.6v-9.9h0.5c0.1,0,0.1,0,0.2,0c0,0,0.1,0.1,0.1,0.1l4,6.9C260,109.9,260.1,110,260.1,110.2z"/>
	<path class="st1" d="M269.7,112.6h-0.7v-9.9h0.7V112.6z"/>
	<path class="st1" d="M274.1,102.8c0,0,0.1,0.1,0.1,0.1l6.4,8.6c0-0.1,0-0.3,0-0.4v-8.3h0.6v9.9h-0.3c-0.1,0-0.2,0-0.3-0.1l-6.4-8.6
		c0,0.1,0,0.3,0,0.4v8.3h-0.6v-9.9h0.4C274,102.7,274.1,102.8,274.1,102.8z"/>
	<path class="st1" d="M292.6,112.6h-0.7v-4.7h-6.2v4.7H285v-9.9h0.7v4.6h6.2v-4.6h0.7V112.6z"/>
	<path class="st1" d="M305.2,107.7c0,0.8-0.1,1.5-0.3,2.1s-0.6,1.2-1,1.6s-0.9,0.8-1.5,1c-0.6,0.2-1.2,0.4-1.9,0.4
		c-0.7,0-1.3-0.1-1.9-0.4s-1.1-0.6-1.5-1c-0.4-0.4-0.7-1-1-1.6c-0.2-0.6-0.3-1.3-0.3-2.1c0-0.8,0.1-1.5,0.3-2.1
		c0.2-0.6,0.6-1.2,1-1.6c0.4-0.4,0.9-0.8,1.5-1c0.6-0.2,1.2-0.4,1.9-0.4c0.7,0,1.3,0.1,1.9,0.4c0.6,0.2,1.1,0.6,1.5,1s0.7,1,1,1.6
		C305.1,106.2,305.2,106.9,305.2,107.7z M304.4,107.7c0-0.7-0.1-1.3-0.3-1.9c-0.2-0.6-0.5-1-0.8-1.4s-0.8-0.7-1.3-0.9
		s-1-0.3-1.6-0.3c-0.6,0-1.1,0.1-1.6,0.3c-0.5,0.2-0.9,0.5-1.3,0.9c-0.4,0.4-0.6,0.8-0.8,1.4c-0.2,0.6-0.3,1.2-0.3,1.9
		c0,0.7,0.1,1.3,0.3,1.9c0.2,0.5,0.5,1,0.8,1.4c0.4,0.4,0.8,0.7,1.3,0.9c0.5,0.2,1,0.3,1.6,0.3c0.6,0,1.1-0.1,1.6-0.3
		c0.5-0.2,0.9-0.5,1.3-0.9s0.6-0.8,0.8-1.4C304.3,109,304.4,108.4,304.4,107.7z"/>
</g>
<g>
	<path class="st1" d="M150.2,91.5c0.1,0,0.2,0,0.3,0.1l0.8,0.8c-0.6,0.7-1.3,1.2-2.2,1.6c-0.8,0.4-1.9,0.6-3.1,0.6
		c-1,0-2-0.2-2.8-0.5c-0.9-0.4-1.6-0.9-2.2-1.5s-1.1-1.4-1.4-2.3s-0.5-1.9-0.5-3c0-1.1,0.2-2.1,0.5-3c0.4-0.9,0.9-1.7,1.5-2.3
		c0.6-0.7,1.4-1.2,2.3-1.5c0.9-0.4,1.9-0.5,3-0.5c1.1,0,2,0.2,2.8,0.5c0.8,0.3,1.5,0.8,2.1,1.3l-0.6,0.9c0,0.1-0.1,0.1-0.2,0.2
		s-0.1,0.1-0.3,0.1c-0.1,0-0.2,0-0.3-0.1c-0.1-0.1-0.2-0.1-0.3-0.2c-0.1-0.1-0.3-0.2-0.5-0.3c-0.2-0.1-0.4-0.2-0.6-0.3
		c-0.2-0.1-0.5-0.2-0.9-0.2s-0.7-0.1-1.1-0.1c-0.8,0-1.5,0.1-2.1,0.4s-1.2,0.6-1.7,1.1c-0.5,0.5-0.8,1.1-1.1,1.8s-0.4,1.5-0.4,2.4
		c0,0.9,0.1,1.7,0.4,2.4c0.3,0.7,0.6,1.3,1.1,1.8c0.4,0.5,1,0.9,1.6,1.1c0.6,0.3,1.3,0.4,2,0.4c0.4,0,0.8,0,1.2-0.1
		c0.3-0.1,0.7-0.1,1-0.2c0.3-0.1,0.6-0.2,0.8-0.4c0.3-0.2,0.5-0.4,0.8-0.6C150,91.5,150.1,91.5,150.2,91.5z"/>
	<path class="st1" d="M157.7,84c0.6,0,1.2,0.1,1.7,0.3c0.5,0.2,1,0.5,1.3,0.9s0.7,0.9,0.9,1.4s0.3,1.2,0.3,1.9c0,0.3,0,0.5-0.1,0.6
		c-0.1,0.1-0.2,0.1-0.3,0.1h-6.8c0,0.6,0.1,1.2,0.3,1.7c0.2,0.5,0.4,0.9,0.7,1.2s0.6,0.6,1,0.7c0.4,0.2,0.8,0.2,1.3,0.2
		c0.5,0,0.8-0.1,1.2-0.2s0.6-0.2,0.8-0.3c0.2-0.1,0.4-0.2,0.6-0.3c0.2-0.1,0.3-0.2,0.4-0.2c0.1,0,0.3,0.1,0.3,0.2l0.5,0.7
		c-0.2,0.3-0.5,0.5-0.8,0.7c-0.3,0.2-0.6,0.4-1,0.5c-0.4,0.1-0.7,0.2-1.1,0.3c-0.4,0.1-0.8,0.1-1.1,0.1c-0.7,0-1.4-0.1-2-0.4
		c-0.6-0.2-1.1-0.6-1.5-1.1c-0.4-0.5-0.8-1-1-1.7c-0.2-0.7-0.4-1.5-0.4-2.3c0-0.7,0.1-1.4,0.3-2s0.5-1.2,0.9-1.6
		c0.4-0.5,0.9-0.8,1.5-1.1C156.3,84.2,156.9,84,157.7,84z M157.7,85.4c-0.9,0-1.6,0.3-2.1,0.8c-0.5,0.5-0.8,1.2-0.9,2.1h5.6
		c0-0.4-0.1-0.8-0.2-1.1c-0.1-0.3-0.3-0.6-0.5-0.9c-0.2-0.3-0.5-0.4-0.8-0.6C158.5,85.4,158.1,85.4,157.7,85.4z"/>
	<path class="st1" d="M164.3,94.5V84.2h1.1c0.3,0,0.4,0.1,0.5,0.4l0.1,1.1c0.4-0.5,0.9-0.9,1.5-1.2c0.5-0.3,1.2-0.5,1.9-0.5
		c0.6,0,1.1,0.1,1.5,0.3c0.4,0.2,0.8,0.4,1.1,0.8s0.5,0.8,0.7,1.2s0.2,1,0.2,1.6v6.5H171v-6.5c0-0.8-0.2-1.4-0.5-1.8
		s-0.9-0.6-1.6-0.6c-0.5,0-1,0.1-1.5,0.4c-0.5,0.3-0.9,0.6-1.3,1v7.6H164.3z"/>
	<path class="st1" d="M178.7,94.6c-0.8,0-1.4-0.2-1.9-0.7s-0.7-1.1-0.7-2v-6.3h-1.2c-0.1,0-0.2,0-0.3-0.1c-0.1-0.1-0.1-0.2-0.1-0.3
		v-0.7l1.7-0.2l0.4-3.2c0-0.1,0.1-0.2,0.1-0.2c0.1-0.1,0.2-0.1,0.3-0.1h0.9v3.5h2.9v1.3H178v6.2c0,0.4,0.1,0.8,0.3,1
		s0.5,0.3,0.8,0.3c0.2,0,0.4,0,0.5-0.1c0.1,0,0.3-0.1,0.4-0.2c0.1-0.1,0.2-0.1,0.3-0.2c0.1-0.1,0.1-0.1,0.2-0.1
		c0.1,0,0.2,0.1,0.3,0.2l0.5,0.9c-0.3,0.3-0.7,0.5-1.1,0.7S179.2,94.6,178.7,94.6z"/>
	<path class="st1" d="M183.2,94.5V84.2h1c0.2,0,0.3,0,0.4,0.1s0.1,0.2,0.2,0.4l0.1,1.6c0.4-0.7,0.8-1.3,1.3-1.7
		c0.5-0.4,1.1-0.6,1.8-0.6c0.3,0,0.5,0,0.8,0.1s0.4,0.2,0.6,0.3l-0.2,1.3c0,0.2-0.2,0.3-0.3,0.3c-0.1,0-0.2,0-0.4-0.1
		c-0.2-0.1-0.5-0.1-0.8-0.1c-0.6,0-1.2,0.2-1.6,0.5s-0.8,0.9-1.1,1.6v6.5H183.2z"/>
	<path class="st1" d="M195.5,84c0.6,0,1.2,0.1,1.7,0.3c0.5,0.2,1,0.5,1.3,0.9s0.7,0.9,0.9,1.4s0.3,1.2,0.3,1.9c0,0.3,0,0.5-0.1,0.6
		c-0.1,0.1-0.2,0.1-0.3,0.1h-6.8c0,0.6,0.1,1.2,0.3,1.7c0.2,0.5,0.4,0.9,0.7,1.2s0.6,0.6,1,0.7c0.4,0.2,0.8,0.2,1.3,0.2
		c0.5,0,0.8-0.1,1.2-0.2s0.6-0.2,0.8-0.3c0.2-0.1,0.4-0.2,0.6-0.3c0.2-0.1,0.3-0.2,0.4-0.2c0.1,0,0.3,0.1,0.3,0.2l0.5,0.7
		c-0.2,0.3-0.5,0.5-0.8,0.7c-0.3,0.2-0.6,0.4-1,0.5c-0.4,0.1-0.7,0.2-1.1,0.3c-0.4,0.1-0.8,0.1-1.1,0.1c-0.7,0-1.4-0.1-2-0.4
		c-0.6-0.2-1.1-0.6-1.5-1.1c-0.4-0.5-0.8-1-1-1.7c-0.2-0.7-0.4-1.5-0.4-2.3c0-0.7,0.1-1.4,0.3-2s0.5-1.2,0.9-1.6
		c0.4-0.5,0.9-0.8,1.5-1.1C194.1,84.2,194.7,84,195.5,84z M195.5,85.4c-0.9,0-1.6,0.3-2.1,0.8c-0.5,0.5-0.8,1.2-0.9,2.1h5.6
		c0-0.4-0.1-0.8-0.2-1.1c-0.1-0.3-0.3-0.6-0.5-0.9c-0.2-0.3-0.5-0.4-0.8-0.6C196.3,85.4,195.9,85.4,195.5,85.4z"/>
	<path class="st1" d="M210.2,84c0.7,0,1.4,0.1,2,0.4c0.6,0.2,1.1,0.6,1.5,1.1s0.7,1,1,1.7c0.2,0.7,0.3,1.4,0.3,2.2
		c0,0.8-0.1,1.5-0.3,2.2c-0.2,0.6-0.6,1.2-1,1.7s-0.9,0.8-1.5,1.1c-0.6,0.2-1.3,0.4-2,0.4c-0.8,0-1.4-0.1-2-0.4
		c-0.6-0.2-1.1-0.6-1.5-1.1c-0.4-0.5-0.8-1-1-1.7c-0.2-0.6-0.3-1.4-0.3-2.2c0-0.8,0.1-1.5,0.3-2.2s0.6-1.2,1-1.7
		c0.4-0.5,0.9-0.8,1.5-1.1C208.8,84.2,209.5,84,210.2,84z M210.2,93.2c1,0,1.8-0.3,2.3-1c0.5-0.7,0.7-1.6,0.7-2.8
		c0-1.2-0.2-2.2-0.7-2.9c-0.5-0.7-1.3-1-2.3-1c-0.5,0-1,0.1-1.3,0.3c-0.4,0.2-0.7,0.4-0.9,0.8c-0.3,0.3-0.4,0.7-0.6,1.2
		c-0.1,0.5-0.2,1-0.2,1.6s0.1,1.2,0.2,1.6s0.3,0.9,0.6,1.2c0.3,0.3,0.6,0.6,0.9,0.8C209.3,93.1,209.7,93.2,210.2,93.2z"/>
	<path class="st1" d="M217.8,94.5v-8.7l-1.1-0.1c-0.1,0-0.3-0.1-0.3-0.2c-0.1-0.1-0.1-0.2-0.1-0.3v-0.7h1.6v-1
		c0-0.6,0.1-1.1,0.2-1.6c0.2-0.5,0.4-0.8,0.7-1.2c0.3-0.3,0.7-0.6,1.1-0.7c0.4-0.2,0.9-0.2,1.5-0.2c0.5,0,0.9,0.1,1.3,0.2l0,0.9
		c0,0.1-0.1,0.2-0.2,0.2s-0.3,0-0.5,0h-0.3c-0.3,0-0.6,0-0.8,0.1c-0.3,0.1-0.5,0.2-0.7,0.4c-0.2,0.2-0.3,0.4-0.4,0.7
		c-0.1,0.3-0.1,0.7-0.1,1.1v0.9h3v1.3h-2.9v8.7H217.8z"/>
	<path class="st1" d="M235.9,89.7c0.1,0.2,0.1,0.4,0.2,0.5c0.1-0.2,0.1-0.4,0.2-0.5s0.2-0.3,0.3-0.5l4.9-8.9
		c0.1-0.2,0.2-0.2,0.3-0.3c0.1,0,0.2,0,0.4,0h1.4v14.5h-1.7V83.8c0-0.1,0-0.3,0-0.5s0-0.3,0-0.5l-5,9.1c-0.2,0.3-0.4,0.5-0.7,0.5
		H236c-0.3,0-0.5-0.2-0.7-0.5l-5.1-9.1c0,0.2,0,0.3,0,0.5c0,0.2,0,0.3,0,0.5v10.7h-1.7V80h1.4c0.2,0,0.3,0,0.4,0
		c0.1,0,0.2,0.1,0.3,0.3l5,8.9C235.8,89.4,235.8,89.5,235.9,89.7z"/>
	<path class="st1" d="M254.5,94.5h-0.8c-0.2,0-0.3,0-0.4-0.1c-0.1-0.1-0.2-0.2-0.2-0.3l-0.2-1c-0.3,0.2-0.5,0.5-0.8,0.7
		s-0.5,0.4-0.8,0.5c-0.3,0.1-0.6,0.2-0.9,0.3c-0.3,0.1-0.7,0.1-1.1,0.1c-0.4,0-0.8-0.1-1.1-0.2c-0.3-0.1-0.6-0.3-0.9-0.5
		c-0.3-0.2-0.5-0.5-0.6-0.8c-0.2-0.3-0.2-0.7-0.2-1.2c0-0.4,0.1-0.8,0.3-1.2s0.6-0.7,1.1-1s1.1-0.5,1.9-0.7c0.8-0.2,1.8-0.3,2.9-0.3
		v-0.8c0-0.8-0.2-1.4-0.5-1.8s-0.8-0.6-1.5-0.6c-0.4,0-0.8,0.1-1.1,0.2c-0.3,0.1-0.6,0.2-0.8,0.4c-0.2,0.1-0.4,0.3-0.6,0.4
		c-0.2,0.1-0.3,0.2-0.5,0.2c-0.1,0-0.2,0-0.3-0.1c-0.1-0.1-0.2-0.1-0.2-0.2l-0.3-0.6c0.6-0.5,1.2-1,1.8-1.2c0.7-0.3,1.4-0.4,2.2-0.4
		c0.6,0,1.1,0.1,1.5,0.3c0.4,0.2,0.8,0.5,1.1,0.8c0.3,0.3,0.5,0.7,0.7,1.2s0.2,1,0.2,1.6V94.5z M249.8,93.4c0.3,0,0.6,0,0.9-0.1
		c0.3-0.1,0.5-0.2,0.7-0.3c0.2-0.1,0.5-0.3,0.7-0.4c0.2-0.2,0.4-0.4,0.6-0.6v-2.1c-0.8,0-1.5,0.1-2.1,0.2c-0.6,0.1-1.1,0.2-1.4,0.4
		c-0.4,0.2-0.6,0.4-0.8,0.6c-0.2,0.2-0.2,0.5-0.2,0.8c0,0.3,0,0.5,0.1,0.7c0.1,0.2,0.2,0.4,0.4,0.5c0.1,0.1,0.3,0.2,0.5,0.3
		C249.3,93.3,249.6,93.4,249.8,93.4z"/>
	<path class="st1" d="M260.4,94.6c-0.8,0-1.4-0.2-1.9-0.7s-0.7-1.1-0.7-2v-6.3h-1.2c-0.1,0-0.2,0-0.3-0.1c-0.1-0.1-0.1-0.2-0.1-0.3
		v-0.7l1.7-0.2l0.4-3.2c0-0.1,0.1-0.2,0.1-0.2c0.1-0.1,0.2-0.1,0.3-0.1h0.9v3.5h2.9v1.3h-2.9v6.2c0,0.4,0.1,0.8,0.3,1
		s0.5,0.3,0.8,0.3c0.2,0,0.4,0,0.5-0.1c0.1,0,0.3-0.1,0.4-0.2c0.1-0.1,0.2-0.1,0.3-0.2c0.1-0.1,0.1-0.1,0.2-0.1
		c0.1,0,0.2,0.1,0.3,0.2l0.5,0.9c-0.3,0.3-0.7,0.5-1.1,0.7S260.8,94.6,260.4,94.6z"/>
	<path class="st1" d="M264.9,94.5V79.5h1.8v6c0.4-0.5,0.9-0.8,1.5-1.1s1.1-0.4,1.8-0.4c0.6,0,1.1,0.1,1.5,0.3
		c0.4,0.2,0.8,0.4,1.1,0.8s0.5,0.8,0.7,1.2s0.2,1,0.2,1.6v6.5h-1.8v-6.5c0-0.8-0.2-1.4-0.5-1.8s-0.9-0.6-1.6-0.6
		c-0.5,0-1,0.1-1.5,0.4c-0.5,0.3-0.9,0.6-1.3,1v7.6H264.9z"/>
	<path class="st1" d="M280.3,84c0.6,0,1.2,0.1,1.7,0.3c0.5,0.2,1,0.5,1.3,0.9s0.7,0.9,0.9,1.4s0.3,1.2,0.3,1.9c0,0.3,0,0.5-0.1,0.6
		c-0.1,0.1-0.2,0.1-0.3,0.1h-6.8c0,0.6,0.1,1.2,0.3,1.7c0.2,0.5,0.4,0.9,0.7,1.2s0.6,0.6,1,0.7c0.4,0.2,0.8,0.2,1.3,0.2
		c0.5,0,0.8-0.1,1.2-0.2s0.6-0.2,0.8-0.3c0.2-0.1,0.4-0.2,0.6-0.3c0.2-0.1,0.3-0.2,0.4-0.2c0.1,0,0.3,0.1,0.3,0.2l0.5,0.7
		c-0.2,0.3-0.5,0.5-0.8,0.7c-0.3,0.2-0.6,0.4-1,0.5c-0.4,0.1-0.7,0.2-1.1,0.3c-0.4,0.1-0.8,0.1-1.1,0.1c-0.7,0-1.4-0.1-2-0.4
		c-0.6-0.2-1.1-0.6-1.5-1.1c-0.4-0.5-0.8-1-1-1.7c-0.2-0.7-0.4-1.5-0.4-2.3c0-0.7,0.1-1.4,0.3-2s0.5-1.2,0.9-1.6
		c0.4-0.5,0.9-0.8,1.5-1.1C278.8,84.2,279.5,84,280.3,84z M280.3,85.4c-0.9,0-1.6,0.3-2.1,0.8c-0.5,0.5-0.8,1.2-0.9,2.1h5.6
		c0-0.4-0.1-0.8-0.2-1.1c-0.1-0.3-0.3-0.6-0.5-0.9c-0.2-0.3-0.5-0.4-0.8-0.6C281.1,85.4,280.7,85.4,280.3,85.4z"/>
	<path class="st1" d="M286.9,94.5V84.2h1.1c0.3,0,0.4,0.1,0.5,0.4l0.1,1.1c0.4-0.5,0.8-0.8,1.3-1.1c0.5-0.3,1-0.4,1.6-0.4
		c0.7,0,1.3,0.2,1.7,0.6s0.7,0.9,0.9,1.6c0.1-0.4,0.3-0.7,0.6-1c0.2-0.3,0.5-0.5,0.8-0.7c0.3-0.2,0.6-0.3,0.9-0.4s0.7-0.1,1-0.1
		c0.5,0,1,0.1,1.4,0.3c0.4,0.2,0.8,0.4,1.1,0.8c0.3,0.3,0.5,0.7,0.7,1.2c0.2,0.5,0.2,1,0.2,1.7v6.5H299v-6.5c0-0.8-0.2-1.4-0.5-1.8
		c-0.4-0.4-0.9-0.6-1.5-0.6c-0.3,0-0.6,0.1-0.8,0.2c-0.3,0.1-0.5,0.3-0.7,0.5c-0.2,0.2-0.4,0.5-0.5,0.8c-0.1,0.3-0.2,0.7-0.2,1.1
		v6.5h-1.8v-6.5c0-0.8-0.2-1.4-0.5-1.8c-0.3-0.4-0.8-0.6-1.4-0.6c-0.4,0-0.9,0.1-1.2,0.4c-0.4,0.2-0.7,0.6-1,1v7.6H286.9z"/>
	<path class="st1" d="M311.1,94.5h-0.8c-0.2,0-0.3,0-0.4-0.1c-0.1-0.1-0.2-0.2-0.2-0.3l-0.2-1c-0.3,0.2-0.5,0.5-0.8,0.7
		s-0.5,0.4-0.8,0.5c-0.3,0.1-0.6,0.2-0.9,0.3c-0.3,0.1-0.7,0.1-1.1,0.1c-0.4,0-0.8-0.1-1.1-0.2c-0.3-0.1-0.6-0.3-0.9-0.5
		c-0.3-0.2-0.5-0.5-0.6-0.8c-0.2-0.3-0.2-0.7-0.2-1.2c0-0.4,0.1-0.8,0.3-1.2s0.6-0.7,1.1-1s1.1-0.5,1.9-0.7c0.8-0.2,1.8-0.3,2.9-0.3
		v-0.8c0-0.8-0.2-1.4-0.5-1.8s-0.8-0.6-1.5-0.6c-0.4,0-0.8,0.1-1.1,0.2c-0.3,0.1-0.6,0.2-0.8,0.4c-0.2,0.1-0.4,0.3-0.6,0.4
		c-0.2,0.1-0.3,0.2-0.5,0.2c-0.1,0-0.2,0-0.3-0.1c-0.1-0.1-0.2-0.1-0.2-0.2l-0.3-0.6c0.6-0.5,1.2-1,1.8-1.2c0.7-0.3,1.4-0.4,2.2-0.4
		c0.6,0,1.1,0.1,1.5,0.3c0.4,0.2,0.8,0.5,1.1,0.8c0.3,0.3,0.5,0.7,0.7,1.2s0.2,1,0.2,1.6V94.5z M306.4,93.4c0.3,0,0.6,0,0.9-0.1
		c0.3-0.1,0.5-0.2,0.7-0.3c0.2-0.1,0.5-0.3,0.7-0.4c0.2-0.2,0.4-0.4,0.6-0.6v-2.1c-0.8,0-1.5,0.1-2.1,0.2c-0.6,0.1-1.1,0.2-1.4,0.4
		c-0.4,0.2-0.6,0.4-0.8,0.6c-0.2,0.2-0.2,0.5-0.2,0.8c0,0.3,0,0.5,0.1,0.7c0.1,0.2,0.2,0.4,0.4,0.5c0.1,0.1,0.3,0.2,0.5,0.3
		C306,93.3,306.2,93.4,306.4,93.4z"/>
	<path class="st1" d="M317,94.6c-0.8,0-1.4-0.2-1.9-0.7s-0.7-1.1-0.7-2v-6.3h-1.2c-0.1,0-0.2,0-0.3-0.1c-0.1-0.1-0.1-0.2-0.1-0.3
		v-0.7l1.7-0.2l0.4-3.2c0-0.1,0.1-0.2,0.1-0.2c0.1-0.1,0.2-0.1,0.3-0.1h0.9v3.5h2.9v1.3h-2.9v6.2c0,0.4,0.1,0.8,0.3,1
		s0.5,0.3,0.8,0.3c0.2,0,0.4,0,0.5-0.1c0.1,0,0.3-0.1,0.4-0.2c0.1-0.1,0.2-0.1,0.3-0.2c0.1-0.1,0.1-0.1,0.2-0.1
		c0.1,0,0.2,0.1,0.3,0.2l0.5,0.9c-0.3,0.3-0.7,0.5-1.1,0.7S317.5,94.6,317,94.6z"/>
	<path class="st1" d="M323.9,81c0,0.2,0,0.3-0.1,0.5c-0.1,0.2-0.2,0.3-0.3,0.4s-0.3,0.2-0.4,0.3s-0.3,0.1-0.5,0.1s-0.3,0-0.5-0.1
		c-0.2-0.1-0.3-0.2-0.4-0.3c-0.1-0.1-0.2-0.3-0.3-0.4c-0.1-0.2-0.1-0.3-0.1-0.5c0-0.2,0-0.3,0.1-0.5c0.1-0.2,0.2-0.3,0.3-0.4
		c0.1-0.1,0.3-0.2,0.4-0.3c0.2-0.1,0.3-0.1,0.5-0.1s0.3,0,0.5,0.1s0.3,0.2,0.4,0.3s0.2,0.3,0.3,0.4C323.9,80.6,323.9,80.8,323.9,81z
		 M323.5,84.2v10.3h-1.8V84.2H323.5z"/>
	<path class="st1" d="M333.7,86c-0.1,0.1-0.1,0.1-0.2,0.2c-0.1,0-0.1,0.1-0.2,0.1c-0.1,0-0.2,0-0.3-0.1c-0.1-0.1-0.3-0.2-0.5-0.3
		c-0.2-0.1-0.4-0.2-0.7-0.3c-0.3-0.1-0.6-0.1-1-0.1c-0.5,0-0.9,0.1-1.3,0.3s-0.7,0.4-1,0.8c-0.3,0.3-0.5,0.7-0.6,1.2s-0.2,1-0.2,1.6
		c0,0.6,0.1,1.2,0.2,1.7c0.1,0.5,0.3,0.9,0.6,1.2s0.6,0.6,0.9,0.7s0.8,0.3,1.2,0.3c0.4,0,0.8-0.1,1.1-0.2c0.3-0.1,0.5-0.2,0.7-0.3
		c0.2-0.1,0.3-0.2,0.5-0.3c0.1-0.1,0.2-0.2,0.4-0.2c0.2,0,0.3,0.1,0.3,0.2l0.5,0.7c-0.4,0.5-1,0.9-1.7,1.2c-0.7,0.3-1.4,0.4-2.1,0.4
		c-0.6,0-1.2-0.1-1.8-0.4c-0.6-0.2-1-0.6-1.4-1c-0.4-0.4-0.7-1-1-1.7c-0.2-0.7-0.3-1.4-0.3-2.2c0-0.8,0.1-1.5,0.3-2.1
		c0.2-0.6,0.5-1.2,0.9-1.7c0.4-0.5,0.9-0.8,1.5-1.1c0.6-0.3,1.3-0.4,2.1-0.4c0.7,0,1.3,0.1,1.9,0.3s1,0.6,1.5,1L333.7,86z"/>
	<path class="st1" d="M342.1,85.9c-0.1,0.1-0.2,0.2-0.4,0.2c-0.1,0-0.2,0-0.3-0.1s-0.3-0.2-0.5-0.2c-0.2-0.1-0.4-0.2-0.7-0.3
		c-0.3-0.1-0.6-0.1-0.9-0.1c-0.3,0-0.6,0-0.8,0.1c-0.2,0.1-0.5,0.2-0.6,0.3s-0.3,0.3-0.4,0.5s-0.1,0.4-0.1,0.6
		c0,0.3,0.1,0.5,0.2,0.7c0.2,0.2,0.4,0.3,0.6,0.5s0.5,0.2,0.9,0.3s0.6,0.2,1,0.3c0.3,0.1,0.7,0.2,1,0.4s0.6,0.3,0.9,0.5
		c0.2,0.2,0.5,0.5,0.6,0.7c0.2,0.3,0.2,0.6,0.2,1.1c0,0.5-0.1,0.9-0.3,1.3c-0.2,0.4-0.4,0.7-0.7,1c-0.3,0.3-0.7,0.5-1.2,0.7
		c-0.5,0.2-1,0.3-1.7,0.3c-0.7,0-1.4-0.1-1.9-0.3c-0.6-0.2-1.1-0.5-1.5-0.9l0.4-0.7c0.1-0.1,0.1-0.2,0.2-0.2c0.1,0,0.2-0.1,0.3-0.1
		s0.2,0,0.4,0.1s0.3,0.2,0.5,0.3c0.2,0.1,0.4,0.2,0.7,0.3s0.6,0.1,1,0.1c0.4,0,0.7,0,0.9-0.1s0.5-0.2,0.7-0.4s0.3-0.3,0.4-0.5
		s0.1-0.4,0.1-0.6c0-0.3-0.1-0.5-0.2-0.7c-0.2-0.2-0.4-0.3-0.6-0.5c-0.2-0.1-0.5-0.2-0.9-0.3c-0.3-0.1-0.6-0.2-1-0.3
		c-0.3-0.1-0.7-0.2-1-0.4c-0.3-0.1-0.6-0.3-0.9-0.5c-0.2-0.2-0.5-0.5-0.6-0.8c-0.2-0.3-0.2-0.7-0.2-1.1c0-0.4,0.1-0.8,0.2-1.1
		c0.2-0.4,0.4-0.7,0.7-1s0.7-0.5,1.1-0.7s1-0.2,1.5-0.2c0.7,0,1.3,0.1,1.8,0.3c0.5,0.2,1,0.5,1.4,0.9L342.1,85.9z"/>
</g>
</svg>
