<?xml version="1.0" encoding="UTF-8"?>
<svg id="Capa_2" data-name="Capa 2" xmlns="http://www.w3.org/2000/svg" xmlns:xlink="http://www.w3.org/1999/xlink" viewBox="0 0 289.88 84.41">
  <defs>
    <style>
      .cls-1 {
        fill: url(#Degradado_sin_nombre_3);
      }

      .cls-1, .cls-2 {
        stroke-width: 0px;
      }

      .cls-2 {
        fill: #012169;
      }
    </style>
    <linearGradient id="Degradado_sin_nombre_3" data-name="Degradado sin nombre 3" x1="0" y1="42.78" x2="82.88" y2="42.78" gradientUnits="userSpaceOnUse">
      <stop offset="0" stop-color="#22d2ed"/>
      <stop offset=".12" stop-color="#1fc4e2"/>
      <stop offset=".35" stop-color="#18a0c8"/>
      <stop offset=".66" stop-color="#0e669d"/>
      <stop offset="1" stop-color="#012169"/>
    </linearGradient>
  </defs>
  <g id="Capa_1-2" data-name="Capa 1">
    <g>
      <g>
        <path class="cls-2" d="M101.75,73.63h-5.16c-.14,1.29-.37,3.06-.5,3.85.44-.61,1.17-1.14,2.63-1.14,2.1,0,3.5,1.52,3.5,3.84s-1.23,4.23-3.93,4.23c-2.04,0-3.47-1.13-3.74-3.1h1.15c.28,1.09.97,2.09,2.63,2.09,1.93,0,2.71-1.31,2.71-3.11,0-1.51-.72-2.91-2.53-2.91s-2.2.89-2.58,1.63l-1.12-.25c.2-1.03.58-3.86.8-6.17h6.3l-.16,1.04Z"/>
        <path class="cls-2" d="M111.78,78.32c0,2.71-.75,6.09-3.92,6.09s-3.9-3.1-3.9-6.01.94-5.97,3.96-5.97,3.87,3.08,3.87,5.89ZM105.18,78.41c0,2.16.53,4.98,2.68,4.98s2.7-2.61,2.7-5.06c0-2.23-.49-4.88-2.64-4.88s-2.74,2.4-2.74,4.96Z"/>
        <path class="cls-2" d="M112.83,75.84h1.51v-2.55h1.11v2.55h1.93v.97h-1.93v5.2c0,.88.2,1.36.98,1.36.23,0,.56-.01.81-.09v.9c-.32.12-.76.15-1.14.15-1.18,0-1.77-.6-1.77-1.96v-5.56h-1.51v-.97Z"/>
        <path class="cls-2" d="M120.08,71.97v5.2c.45-.81,1.24-1.53,2.69-1.53,1.26,0,2.83.66,2.83,3.24v5.33h-1.11v-5.13c0-1.55-.68-2.42-2-2.42-1.59,0-2.41,1.01-2.41,2.93v4.63h-1.11v-12.24h1.11Z"/>
        <path class="cls-2" d="M134.13,80.44l-1.37,3.78h-1.19l4.21-11.61h1.44l4.39,11.61h-1.28l-1.41-3.78h-4.78ZM138.57,79.38c-1.21-3.27-1.85-4.91-2.09-5.74h-.02c-.28.93-1,2.94-1.98,5.74h4.08Z"/>
        <path class="cls-2" d="M143.54,84.21v-11.61h1.65c1.74,2.76,5.71,8.92,6.4,10.18h.02c-.11-1.59-.09-3.36-.09-5.25v-4.93h1.16v11.61h-1.54c-1.64-2.61-5.71-9.12-6.5-10.41h-.02c.08,1.43.07,3.25.07,5.35v5.06h-1.16Z"/>
        <path class="cls-2" d="M155.98,84.21v-11.61h1.65c1.74,2.76,5.71,8.92,6.4,10.18h.02c-.11-1.59-.09-3.36-.09-5.25v-4.93h1.16v11.61h-1.54c-1.64-2.61-5.71-9.12-6.5-10.41h-.02c.08,1.43.07,3.25.07,5.35v5.06h-1.16Z"/>
        <path class="cls-2" d="M169.62,72.6v11.61h-1.19v-11.61h1.19Z"/>
        <path class="cls-2" d="M175.69,84.21l-4.28-11.61h1.27l2.16,5.95c.62,1.73,1.3,3.57,1.55,4.59h.03c.25-.9.98-2.83,1.61-4.53l2.24-6.01h1.24l-4.43,11.61h-1.4Z"/>
        <path class="cls-2" d="M190.43,78.63h-5.86v4.53h6.42l-.16,1.05h-7.43v-11.61h7.32v1.05h-6.15v3.93h5.86v1.05Z"/>
        <path class="cls-2" d="M194.39,78.93v5.29h-1.19v-11.61h4.33c2.33,0,3.57,1.26,3.57,3.08,0,1.49-.87,2.43-2.09,2.73,1.08.27,1.89,1.02,1.89,3.01v.47c0,.81-.05,1.87.15,2.33h-1.18c-.21-.5-.18-1.42-.18-2.46v-.28c0-1.79-.52-2.55-2.68-2.55h-2.64ZM194.39,77.89h2.68c1.92,0,2.79-.72,2.79-2.15,0-1.34-.87-2.1-2.58-2.1h-2.89v4.25Z"/>
        <path class="cls-2" d="M204.16,81.04c.33,1.48,1.33,2.32,3.13,2.32,1.98,0,2.75-.97,2.75-2.15s-.58-1.99-3.03-2.59c-2.58-.64-3.59-1.5-3.59-3.15s1.18-3.03,3.72-3.03,3.76,1.58,3.91,3.04h-1.22c-.24-1.15-.98-2.02-2.74-2.02-1.56,0-2.42.72-2.42,1.92s.71,1.66,2.81,2.17c3.29.81,3.82,2.11,3.82,3.55,0,1.78-1.31,3.26-4.07,3.26-2.91,0-4.06-1.65-4.29-3.31h1.22Z"/>
        <path class="cls-2" d="M215.22,80.44l-1.37,3.78h-1.19l4.21-11.61h1.44l4.39,11.61h-1.28l-1.41-3.78h-4.78ZM219.66,79.38c-1.21-3.27-1.85-4.91-2.09-5.74h-.02c-.28.93-1,2.94-1.98,5.74h4.08Z"/>
        <path class="cls-2" d="M225.82,78.93v5.29h-1.19v-11.61h4.33c2.33,0,3.57,1.26,3.57,3.08,0,1.49-.87,2.43-2.09,2.73,1.08.27,1.89,1.02,1.89,3.01v.47c0,.81-.05,1.87.15,2.33h-1.18c-.21-.5-.18-1.42-.18-2.46v-.28c0-1.79-.52-2.55-2.68-2.55h-2.64ZM225.82,77.89h2.68c1.92,0,2.79-.72,2.79-2.15,0-1.34-.87-2.1-2.58-2.1h-2.89v4.25Z"/>
        <path class="cls-2" d="M237.96,84.21v-4.32c0-.11-.03-.22-.07-.28l-4.12-7.01h1.37c1.11,1.93,2.98,5.17,3.5,6.1.5-.93,2.4-4.16,3.58-6.1h1.29l-4.28,7.06c-.04.07-.06.13-.06.27v4.28h-1.2Z"/>
      </g>
      <g>
        <path class="cls-2" d="M136.93,36.97h-25.31v10.6h30.65v12.89h-47.39V1.1h47.31v12.89h-30.57v10.78h25.31v12.2Z"/>
        <path class="cls-2" d="M203.99,40.94c-2.18,12.41-11.28,20.63-27.58,20.63-19.44,0-28.84-13.12-28.84-30.35S156.86,0,177.25,0c17.45,0,25.39,10.14,26.56,20.42h-17.26c-.79-4.29-3.27-8.2-9.69-8.2-8.46,0-11.34,8.03-11.34,18.39,0,9.41,2.4,18.71,11.53,18.71,6.92,0,8.85-5.02,9.59-8.38h17.35Z"/>
        <path class="cls-2" d="M226.15,48.88l-3.48,11.53-16.94-.07L224.72,1.06l22.52.09,19.26,59.44-18.17-.07-3.56-11.56-18.63-.07ZM241.8,36.03c-2.79-9.33-5.07-17.62-6.42-23.41h-.24c-1.37,6.4-3.64,14.87-6.05,23.41h12.7Z"/>
        <path class="cls-2" d="M289.88,1.1v59.36h-17.45V1.1h17.45Z"/>
      </g>
      <path class="cls-1" d="M49.91,36.88h32.97v23.72h-28.02c-5.28,0-10.11,2.97-12.49,7.68l-6.44,12.71c-1.01,2-3.07,3.27-5.32,3.27H0v-23.72h25.67c5.28,0,10.11-2.97,12.49-7.68l6.44-12.71c1.01-2,3.07-3.27,5.32-3.27ZM41.79,4.57l-6.44,12.71c-2.38,4.71-7.22,7.68-12.49,7.68h-10.98v23.72h15.92c2.25,0,4.3-1.26,5.32-3.27l6.44-12.71c2.38-4.71,7.22-7.68,12.49-7.68h30.83V1.3h-35.77c-2.25,0-4.3,1.26-5.32,3.27Z"/>
    </g>
  </g>
</svg>